HIERARCHY
ROOT Hips
{
	OFFSET 0.000000 83.214638 0.000000
	CHANNELS 6 Xposition Yposition Zposition Xrotation Yrotation Zrotation
	JOINT Pelvis
	{
		OFFSET 0.000000 0.000000 0.000000
		CHANNELS 3 Xrotation Yrotation Zrotation
		JOINT LeftUpLeg
		{
			OFFSET 8.479700 -4.795502 -0.379100
			CHANNELS 3 Xrotation Yrotation Zrotation
			JOINT LeftLeg
			{
				OFFSET 0.024144 -32.555107 0.112900
				CHANNELS 3 Xrotation Yrotation Zrotation
				JOINT LeftFoot
				{
					OFFSET -0.024144 -32.638630 -3.012600
					CHANNELS 3 Xrotation Yrotation Zrotation
					JOINT LeftToeBase
					{
						OFFSET 0.970200 -13.225400 11.864200
						CHANNELS 3 Xrotation Yrotation Zrotation
						End Site
						{
							OFFSET 0.000000 12.319262 0.000000
						}
					}
					JOINT LFootTongue
					{
						OFFSET 1.142400 -1.059800 6.665200
						CHANNELS 3 Xrotation Yrotation Zrotation
						End Site
						{
							OFFSET 0.000000 12.319262 0.000000
						}
					}
				}
				JOINT LeftPantLeg
				{
					OFFSET 0.918482 -16.533964 -2.284700
					CHANNELS 3 Xrotation Yrotation Zrotation
					End Site
					{
						OFFSET 0.350399 24.744368 0.000000
					}
				}
			}
		}
		JOINT RightUpLeg
		{
			OFFSET -8.479700 -4.795502 -0.379100
			CHANNELS 3 Xrotation Yrotation Zrotation
			JOINT RightLeg
			{
				OFFSET -0.023144 -32.555092 0.112900
				CHANNELS 3 Xrotation Yrotation Zrotation
				JOINT RightFoot
				{
					OFFSET 0.023144 -32.638641 -3.012700
					CHANNELS 3 Xrotation Yrotation Zrotation
					JOINT RightToeBase
					{
						OFFSET -0.970200 -13.225400 11.864200
						CHANNELS 3 Xrotation Yrotation Zrotation
						End Site
						{
							OFFSET 0.000000 12.319244 0.000000
						}
					}
					JOINT RFootTongue
					{
						OFFSET -1.142200 -1.059800 6.665200
						CHANNELS 3 Xrotation Yrotation Zrotation
						End Site
						{
							OFFSET 0.000000 12.319243 0.000000
						}
					}
				}
				JOINT RightPantLeg
				{
					OFFSET -0.919482 -16.533978 -2.284800
					CHANNELS 3 Xrotation Yrotation Zrotation
					End Site
					{
						OFFSET -0.350400 24.744419 0.000000
					}
				}
			}
		}
	}
	JOINT Spine
	{
		OFFSET 0.000000 7.722000 1.166200
		CHANNELS 3 Xrotation Yrotation Zrotation
		JOINT Spine1
		{
			OFFSET 0.000000 12.024101 0.248800
			CHANNELS 3 Xrotation Yrotation Zrotation
			JOINT Spine2
			{
				OFFSET 0.000000 11.502998 -0.491200
				CHANNELS 3 Xrotation Yrotation Zrotation
				JOINT Neck
				{
					OFFSET 0.000000 18.430702 -3.123100
					CHANNELS 3 Xrotation Yrotation Zrotation
					JOINT Head
					{
						OFFSET 0.000000 9.051102 1.034000
						CHANNELS 3 Xrotation Yrotation Zrotation
						JOINT HairB
						{
							OFFSET 0.208400 24.786102 24.822300
							CHANNELS 3 Xrotation Yrotation Zrotation
							End Site
							{
								OFFSET 0.000000 32.263779 0.000000
							}
						}
						JOINT HairA
						{
							OFFSET -7.081100 24.428299 23.196600
							CHANNELS 3 Xrotation Yrotation Zrotation
							End Site
							{
								OFFSET 0.000000 32.263779 0.000000
							}
						}
						JOINT Hat
						{
							OFFSET 16.728800 15.048294 -15.439601
							CHANNELS 3 Xrotation Yrotation Zrotation
							End Site
							{
								OFFSET 0.000000 32.263779 0.000000
							}
						}
					}
				}
				JOINT LeftShoulder
				{
					OFFSET 6.197800 13.665199 -4.064700
					CHANNELS 3 Xrotation Yrotation Zrotation
					JOINT LeftArm
					{
						OFFSET 7.778100 -0.187103 -1.709300
						CHANNELS 3 Xrotation Yrotation Zrotation
						JOINT LeftForeArm
						{
							OFFSET 22.049376 0.000000 0.000000
							CHANNELS 3 Xrotation Yrotation Zrotation
							JOINT LeftHand
							{
								OFFSET 23.009392 0.000000 0.000000
								CHANNELS 3 Xrotation Yrotation Zrotation
								JOINT LeftHandThumb1
								{
									OFFSET 3.507191 -2.063065 3.133727
									CHANNELS 3 Xrotation Yrotation Zrotation
									JOINT LeftHandThumb2
									{
										OFFSET 3.101337 -1.790558 1.790558
										CHANNELS 3 Xrotation Yrotation Zrotation
										JOINT LeftHandThumb3
										{
											OFFSET 3.058640 -1.765907 1.765906
											CHANNELS 3 Xrotation Yrotation Zrotation
											End Site
											{
												OFFSET -0.415260 3.926476 -0.049563
											}
										}
									}
								}
								JOINT LeftHandIndex1
								{
									OFFSET 11.334419 -0.901459 3.706815
									CHANNELS 3 Xrotation Yrotation Zrotation
									JOINT LeftHandIndex2
									{
										OFFSET 3.283112 0.000000 0.000000
										CHANNELS 3 Xrotation Yrotation Zrotation
										JOINT LeftHandIndex3
										{
											OFFSET 3.323853 0.000000 0.000000
											CHANNELS 3 Xrotation Yrotation Zrotation
											End Site
											{
												OFFSET -1.135597 3.097809 0.402452
											}
										}
									}
								}
								JOINT LeftHandMiddle1
								{
									OFFSET 11.335861 0.000000 0.000000
									CHANNELS 3 Xrotation Yrotation Zrotation
									JOINT LeftHandMiddle2
									{
										OFFSET 3.410492 0.000000 0.000000
										CHANNELS 3 Xrotation Yrotation Zrotation
										JOINT LeftHandMiddle3
										{
											OFFSET 3.312172 0.000000 0.000000
											CHANNELS 3 Xrotation Yrotation Zrotation
											End Site
											{
												OFFSET -1.150200 3.080154 0.400270
											}
										}
									}
								}
								JOINT LeftHandRing1
								{
									OFFSET 11.514786 -0.013176 -3.003090
									CHANNELS 3 Xrotation Yrotation Zrotation
									JOINT LeftHandRing2
									{
										OFFSET 3.053307 0.000000 0.000000
										CHANNELS 3 Xrotation Yrotation Zrotation
										JOINT LeftHandRing3
										{
											OFFSET 3.295807 0.000000 0.000000
											CHANNELS 3 Xrotation Yrotation Zrotation
											End Site
											{
												OFFSET -1.281006 3.013344 0.375733
											}
										}
									}
								}
								JOINT LeftHandPinky1
								{
									OFFSET 10.518692 -0.960396 -5.730441
									CHANNELS 3 Xrotation Yrotation Zrotation
									JOINT LeftHandPinky2
									{
										OFFSET 2.861649 0.000000 0.000000
										CHANNELS 3 Xrotation Yrotation Zrotation
										JOINT LeftHandPinky3
										{
											OFFSET 2.863380 0.000000 0.000000
											CHANNELS 3 Xrotation Yrotation Zrotation
											End Site
											{
												OFFSET -0.843597 2.711159 0.369971
											}
										}
									}
								}
							}
							JOINT LSleeve
							{
								OFFSET 6.676277 -0.344902 -1.011730
								CHANNELS 3 Xrotation Yrotation Zrotation
								End Site
								{
									OFFSET 0.000000 14.885353 0.000000
								}
							}
						}
					}
				}
				JOINT RightShoulder
				{
					OFFSET -6.197800 13.665199 -4.064700
					CHANNELS 3 Xrotation Yrotation Zrotation
					JOINT RightArm
					{
						OFFSET -7.778100 -0.187103 -1.709300
						CHANNELS 3 Xrotation Yrotation Zrotation
						JOINT RightForeArm
						{
							OFFSET -22.049376 0.000000 0.000000
							CHANNELS 3 Xrotation Yrotation Zrotation
							JOINT RightHand
							{
								OFFSET -23.009392 0.000000 0.000000
								CHANNELS 3 Xrotation Yrotation Zrotation
								JOINT RightHandThumb1
								{
									OFFSET -3.507191 -2.063065 3.133727
									CHANNELS 3 Xrotation Yrotation Zrotation
									JOINT RightHandThumb2
									{
										OFFSET -3.101337 -1.790558 1.790558
										CHANNELS 3 Xrotation Yrotation Zrotation
										JOINT RightHandThumb3
										{
											OFFSET -3.058640 -1.765907 1.765906
											CHANNELS 3 Xrotation Yrotation Zrotation
											End Site
											{
												OFFSET 0.415260 3.926476 -0.049563
											}
										}
									}
								}
								JOINT RightHandIndex1
								{
									OFFSET -11.334419 -0.901459 3.706815
									CHANNELS 3 Xrotation Yrotation Zrotation
									JOINT RightHandIndex2
									{
										OFFSET -3.283112 0.000000 0.000000
										CHANNELS 3 Xrotation Yrotation Zrotation
										JOINT RightHandIndex3
										{
											OFFSET -3.323853 0.000000 0.000000
											CHANNELS 3 Xrotation Yrotation Zrotation
											End Site
											{
												OFFSET 1.135597 3.097809 0.402452
											}
										}
									}
								}
								JOINT RightHandMiddle1
								{
									OFFSET -11.335861 0.000000 0.000000
									CHANNELS 3 Xrotation Yrotation Zrotation
									JOINT RightHandMiddle2
									{
										OFFSET -3.410492 0.000000 0.000000
										CHANNELS 3 Xrotation Yrotation Zrotation
										JOINT RightHandMiddle3
										{
											OFFSET -3.312172 0.000000 0.000000
											CHANNELS 3 Xrotation Yrotation Zrotation
											End Site
											{
												OFFSET 1.150200 3.080154 0.400270
											}
										}
									}
								}
								JOINT RightHandRing1
								{
									OFFSET -11.514786 -0.013176 -3.003090
									CHANNELS 3 Xrotation Yrotation Zrotation
									JOINT RightHandRing2
									{
										OFFSET -3.053307 0.000000 0.000000
										CHANNELS 3 Xrotation Yrotation Zrotation
										JOINT RightHandRing3
										{
											OFFSET -3.295807 0.000000 0.000000
											CHANNELS 3 Xrotation Yrotation Zrotation
											End Site
											{
												OFFSET 1.281006 3.013344 0.375733
											}
										}
									}
								}
								JOINT RightHandPinky1
								{
									OFFSET -10.518692 -0.960396 -5.730441
									CHANNELS 3 Xrotation Yrotation Zrotation
									JOINT RightHandPinky2
									{
										OFFSET -2.861649 0.000000 0.000000
										CHANNELS 3 Xrotation Yrotation Zrotation
										JOINT RightHandPinky3
										{
											OFFSET -2.863380 0.000000 0.000000
											CHANNELS 3 Xrotation Yrotation Zrotation
											End Site
											{
												OFFSET 0.843597 2.711159 0.369971
											}
										}
									}
								}
							}
							JOINT RSleeve
							{
								OFFSET -6.676277 -0.344902 -1.011730
								CHANNELS 3 Xrotation Yrotation Zrotation
								End Site
								{
									OFFSET 0.000000 14.885353 0.000000
								}
							}
						}
					}
				}
				JOINT Backpack
				{
					OFFSET 0.000000 -2.471497 36.677502
					CHANNELS 3 Xrotation Yrotation Zrotation
					End Site
					{
						OFFSET 0.000000 20.427315 0.000000
					}
				}
				JOINT Hood
				{
					OFFSET 0.000000 18.754097 -10.431000
					CHANNELS 3 Xrotation Yrotation Zrotation
					JOINT Hood1
					{
						OFFSET 0.000000 -5.011002 -7.685901
						CHANNELS 3 Xrotation Yrotation Zrotation
						End Site
						{
							OFFSET 0.000000 9.175140 0.000000
						}
					}
				}
				JOINT LHoodieString
				{
					OFFSET 5.250500 16.397697 3.089900
					CHANNELS 3 Xrotation Yrotation Zrotation
					JOINT LHoodieString1
					{
						OFFSET 0.257700 -6.364304 3.694600
						CHANNELS 3 Xrotation Yrotation Zrotation
						JOINT LHoodieString2
						{
							OFFSET 0.000000 -9.643799 2.679100
							CHANNELS 3 Xrotation Yrotation Zrotation
							End Site
							{
								OFFSET 0.000000 10.009018 0.000000
							}
						}
					}
				}
				JOINT RHoodieString
				{
					OFFSET -5.250500 16.397697 3.089900
					CHANNELS 3 Xrotation Yrotation Zrotation
					JOINT RHoodieString1
					{
						OFFSET -0.257700 -6.364304 3.694600
						CHANNELS 3 Xrotation Yrotation Zrotation
						JOINT RHoodieString2
						{
							OFFSET 0.000000 -9.643799 2.679100
							CHANNELS 3 Xrotation Yrotation Zrotation
							End Site
							{
								OFFSET 0.000000 10.009018 0.000000
							}
						}
					}
				}
			}
			JOINT LBackpack_Strap
			{
				OFFSET 15.223200 -7.719803 -6.610900
				CHANNELS 3 Xrotation Yrotation Zrotation
				End Site
				{
					OFFSET 0.000000 16.040596 0.000000
				}
			}
			JOINT RBackpack_Strap
			{
				OFFSET -15.223000 -7.719803 -6.610900
				CHANNELS 3 Xrotation Yrotation Zrotation
				End Site
				{
					OFFSET 0.000000 16.040596 0.000000
				}
			}
		}
	}
	JOINT BoyFacialAnim_Joint
	{
		OFFSET 1.000000 -82.208099 -1.550900
		CHANNELS 3 Xrotation Yrotation Zrotation
		End Site
		{
			OFFSET 0.000000 30.012791 0.000000
		}
	}
}
MOTION
Frames: 4
Frame Time: 0.016667
0.002267 82.015495 0.435184 -0.316909 -0.858913 0.802995 -0.000000 0.000000 -0.000000 -7.522955 13.541805 8.040957 11.227997 -9.927578 0.314443 -4.478595 0.253737 -6.790392 0.000000 -0.000000 0.000000 0.000000 -0.000000 0.000000 0.000000 -0.000000 0.000000 -6.219261 -10.024403 -12.480126 9.137504 6.276789 2.455824 -3.786998 -0.466620 7.660928 0.000000 -0.000000 -0.000000 0.000000 -0.000000 -0.000000 0.000000 0.000000 0.000000 0.602023 0.538669 0.198204 0.948881 0.543752 -0.036077 0.949056 0.535715 -0.036774 1.759488 -1.272665 -0.666066 -4.887636 -8.012346 2.592188 -0.000000 0.000000 -0.000000 -0.000000 0.000000 -0.000000 -0.000000 0.000000 -0.000000 0.691656 -2.499305 -11.191563 5.273951 -17.247122 -62.895271 -0.000005 -21.850205 0.000005 -1.967788 -14.998025 7.080649 -0.666109 2.158565 4.837370 11.853372 25.414290 17.057499 -0.000000 -0.000000 0.000001 0.021813 -0.966718 -7.590974 0.267898 1.752967 -17.376527 -0.000005 0.000002 -0.000002 -0.077458 2.661828 -15.698683 0.268780 1.755776 -17.405231 0.000001 0.000001 -0.000003 0.137968 3.644566 -21.134835 0.386562 2.094661 -20.910448 -0.000001 0.000000 -0.000002 0.949913 5.544489 -27.129272 0.268789 1.755842 -17.405878 -0.000001 0.000001 -0.000002 -0.000001 0.000003 -0.000000 0.450398 7.851257 13.847200 5.786517 9.805980 61.054959 0.000004 23.253208 -0.000002 -0.662973 7.830447 -2.975889 -1.664520 -0.169098 -4.216937 12.708049 -29.838173 -16.127702 0.000001 0.000002 -0.000000 0.037633 1.264470 6.828368 0.213843 -1.396490 17.412963 -0.000002 -0.000000 0.000002 -0.135876 -2.206381 14.998791 0.214470 -1.398406 17.437692 -0.000003 0.000000 0.000002 0.031318 -3.078191 20.463776 0.308446 -1.668280 20.948532 -0.000002 0.000000 0.000002 0.775430 -4.872487 26.474283 0.214425 -1.398297 17.436027 -0.000000 -0.000001 -0.000002 -0.000002 -0.000000 0.000001 0.000000 0.000000 0.000000 0.000000 0.000000 0.000000 0.000000 0.000000 0.000000 0.000000 0.000000 0.000000 0.000000 0.000000 0.000000 -0.000000 0.000000 0.000000 0.000000 0.000000 0.000000 0.000000 0.000000 0.000000 -0.000000 0.000000 0.000000 0.000000 -0.000000 -0.000000 0.000000 -0.000000 -0.000000 -0.000000 0.000000 -0.000000 
0.001590 82.015778 0.462398 -0.316911 -0.878427 0.802785 0.000000 0.000000 0.000000 -7.488920 13.551083 8.040925 11.208007 -9.928012 0.314404 -4.491000 0.271745 -6.793104 -0.000000 0.000000 0.000000 -0.000000 0.000000 -0.000000 -0.000000 -0.000000 -0.000001 -6.188545 -10.017910 -12.479668 9.108266 6.276699 2.449477 -3.788738 -0.466739 7.673505 -0.000000 -0.000000 -0.000000 -0.000000 -0.000000 -0.000000 0.000000 0.000001 -0.000000 0.602021 0.538643 0.187498 0.948881 0.543752 -0.041389 0.949055 0.535716 -0.036774 1.770464 -1.244366 -0.642449 -4.885036 -7.837786 2.577702 -0.000000 -0.000001 -0.000000 -0.000000 -0.000001 -0.000000 -0.000000 -0.000001 -0.000000 0.691600 -2.499366 -11.192654 5.373539 -17.224134 -62.870136 0.000003 -21.977799 0.000003 -2.049701 -15.016728 7.242967 -0.708386 2.148815 4.824273 11.885560 25.397632 16.959722 -0.000000 -0.000000 0.000002 0.004556 -0.960450 -7.844304 0.274111 1.772700 -17.578457 -0.000002 0.000000 -0.000002 -0.083341 2.660502 -15.925209 0.276578 1.780504 -17.658327 -0.000001 -0.000001 -0.000000 0.130352 3.636582 -21.401541 0.396271 2.119886 -21.174531 -0.000000 0.000001 -0.000002 0.949953 5.539161 -27.389812 0.277965 1.784791 -17.702469 -0.000000 0.000000 0.000001 0.000002 -0.000002 0.000001 0.452104 7.851159 13.834698 5.909146 9.840622 61.120214 0.000002 23.315445 0.000002 -0.695389 7.878867 -3.018687 -1.689568 -0.129782 -4.285259 12.722673 -29.827306 -15.983411 0.000002 -0.000002 -0.000003 0.037484 1.312010 6.928898 0.220911 -1.418772 17.699887 -0.000000 -0.000001 0.000002 -0.145121 -2.185772 15.152150 0.220044 -1.416043 17.664792 0.000005 0.000001 -0.000002 0.022671 -3.061569 20.607552 0.316087 -1.688104 21.209629 0.000000 -0.000000 0.000000 0.769653 -4.857931 26.616692 0.219019 -1.412801 17.623131 -0.000002 -0.000004 -0.000006 0.000003 -0.000001 -0.000000 -0.000000 -0.000000 0.000000 -0.000000 -0.000000 0.000000 -0.000000 -0.000000 0.000000 -0.000000 -0.000000 0.000000 -0.000000 -0.000000 -0.000000 -0.000000 -0.000000 0.000000 -0.000000 -0.000000 0.000000 -0.000000 -0.000000 -0.000000 -0.000000 -0.000000 0.000000 0.000000 -0.000000 0.000000 0.000000 -0.000000 0.000000 0.000000 0.000000 0.000000 
0.000028 82.015015 0.491725 -0.316912 -0.895702 0.802888 -0.000000 0.000000 -0.000000 -7.455790 13.559711 8.040961 11.198914 -9.928237 0.314388 -4.513865 0.285369 -6.793537 -0.000000 0.000000 0.000000 -0.000000 0.000000 0.000000 0.000000 0.000000 0.000000 -6.165360 -10.011847 -12.475771 9.105038 6.272325 2.443673 -3.807626 -0.466680 7.678622 0.000000 0.000000 -0.000000 0.000000 0.000000 -0.000000 -0.000000 -0.000001 -0.000000 0.602020 0.542368 0.176806 0.948881 0.543752 -0.047614 0.949056 0.535716 -0.042374 1.780577 -1.212660 -0.622516 -4.885159 -7.647347 2.553905 0.000000 0.000000 0.000000 0.000000 0.000000 0.000000 0.000000 0.000000 0.000000 0.692010 -2.516156 -11.214495 5.525723 -17.246023 -62.798863 -0.000000 -22.198149 0.000005 -2.131738 -14.873364 7.452638 -0.830598 2.120674 4.786331 11.978276 25.349194 16.677297 -0.000001 -0.000002 -0.000000 -0.041676 -0.942360 -8.576654 0.292456 1.829552 -18.162142 -0.000005 0.000003 -0.000001 -0.100878 2.656975 -16.579859 0.299762 1.851701 -18.389892 -0.000000 0.000001 0.000000 0.107216 3.614055 -22.172280 0.425004 2.192516 -21.937844 0.000002 0.000005 -0.000001 0.949222 5.524154 -28.142794 0.305288 1.868206 -18.559779 -0.000002 0.000001 0.000002 0.000002 0.000001 0.000001 0.449468 7.849635 13.857038 6.043051 9.889813 61.153764 -0.000001 23.361528 -0.000005 -0.730121 7.851451 -3.040946 -1.761839 -0.016402 -4.482738 12.765025 -29.795898 -15.566351 -0.000001 0.000001 0.000004 0.036046 1.449432 7.219402 0.241929 -1.482942 18.529403 -0.000001 -0.000001 0.000002 -0.172600 -2.126496 15.595320 0.236555 -1.466871 18.321224 -0.000001 0.000000 -0.000000 -0.002928 -3.013794 21.023054 0.338689 -1.745217 21.964242 0.000000 -0.000002 0.000002 0.752422 -4.816130 27.028250 0.232547 -1.454706 18.163915 -0.000005 0.000002 -0.000001 0.000002 0.000001 -0.000001 0.000000 -0.000000 -0.000000 0.000000 -0.000000 -0.000000 0.000000 -0.000000 -0.000000 0.000000 -0.000000 -0.000000 0.000000 -0.000000 -0.000000 -0.000000 -0.000000 -0.000000 0.000000 -0.000000 -0.000000 0.000000 -0.000000 -0.000000 -0.000000 -0.000000 -0.000000 -0.000000 0.000000 -0.000000 -0.000000 0.000000 -0.000000 -0.000000 0.000000 -0.000000 
-0.001731 82.011436 0.521646 -0.316913 -0.907153 0.799425 0.000000 0.000000 -0.000000 -7.439216 13.563765 8.047957 11.222291 -9.928463 0.314360 -4.554037 0.291186 -6.785232 -0.000000 -0.000000 0.000000 -0.000000 -0.000000 0.000000 0.000000 -0.000000 0.000000 -6.153441 -9.993622 -12.464930 9.137569 6.253731 2.429674 -3.845908 -0.473037 7.686152 0.000000 -0.000000 0.000000 0.000000 -0.000000 0.000000 -0.000000 0.000000 -0.000000 0.603239 0.547661 0.168885 0.952789 0.543752 -0.056660 0.952979 0.540084 -0.051263 1.792711 -1.175588 -0.617547 -4.910367 -7.452489 2.543740 -0.000000 0.000000 -0.000000 -0.000000 0.000000 -0.000000 -0.000000 0.000000 -0.000000 0.691128 -2.553943 -11.273605 5.631555 -17.345954 -62.656918 -0.000009 -22.462028 -0.000020 -2.273021 -14.267536 7.402784 -1.025759 2.075840 4.725334 12.125261 25.271031 16.226602 -0.000003 0.000000 0.000001 -0.116548 -0.912149 -9.746199 0.322957 1.919993 -19.094417 -0.000003 0.000003 -0.000001 -0.130699 2.652279 -17.625348 0.338688 1.964820 -19.558409 0.000002 0.000001 -0.000001 0.066872 3.579867 -23.403069 0.472874 2.307735 -23.157106 -0.000000 0.000004 0.000000 0.945490 5.501388 -29.345136 0.351504 2.000543 -19.929201 -0.000000 -0.000001 0.000001 0.000002 0.000001 -0.000001 0.446510 7.844590 13.940676 6.222920 9.968884 61.098822 -0.000014 23.471774 0.000051 -0.775151 7.617311 -2.904978 -1.876943 0.163954 -4.797923 12.832657 -29.745771 -14.900268 0.000000 0.000004 0.000002 0.030677 1.669081 7.683177 0.277392 -1.584804 19.854364 -0.000002 0.000002 0.000000 -0.218978 -2.032692 16.303149 0.264131 -1.547651 19.369674 -0.000000 0.000001 -0.000002 -0.045736 -2.938342 21.686631 0.376354 -1.835802 23.169597 -0.000001 -0.000004 0.000001 0.723239 -4.750152 27.685465 0.254982 -1.521358 19.027674 -0.000003 -0.000001 -0.000005 0.000000 -0.000001 -0.000000 -0.000000 -0.000000 -0.000000 -0.000000 -0.000000 -0.000000 -0.000000 -0.000000 -0.000000 -0.000000 -0.000000 -0.000000 -0.000000 -0.000000 -0.000000 -0.000000 -0.000000 -0.000000 -0.000000 -0.000000 -0.000000 -0.000000 -0.000000 -0.000000 -0.000000 -0.000000 -0.000000 0.000000 -0.000000 -0.000000 0.000000 -0.000000 -0.000000 0.000000 0.000000 -0.000000 
